<svg xmlns="http://www.w3.org/2000/svg" viewBox="0 0 64 64"
    xmlns:v="https://vecta.io/nano">
    <path fill="#ffffff" d="M19.544 61.485A32.008 32.008 0 1 1 48 4.278V20a20.158 20.158 0 0 0-1.858-2.137A19.977 19.977 0 1 0 48 44.005v15.716a32.077 32.077 0 0 1-28.455 1.764z"/>
    <path fill="#ffffff" d="M48.997 49.007l.036-.036c2.192-2.186 3.939-4.777 5.144-7.629A23.84 23.84 0 0 0 56.063 32c.006-3.209-.635-6.387-1.886-9.342a23.92 23.92 0 0 0-5.144-7.628l-.036-.036V4.82a32.07 32.07 0 0 1 5.63 4.49 31.91 31.91 0 0 1 6.858 10.172 31.8 31.8 0 0 1 2.512 12.456 31.8 31.8 0 0 1-2.515 12.456 31.9 31.9 0 0 1-6.855 10.171 32.07 32.07 0 0 1-5.63 4.493z" opacity=".3"/>
</svg>